<svg width="50" height="50" viewBox="0 0 50 50" fill="none" xmlns="http://www.w3.org/2000/svg">
<g clip-path="url(#clip0_118_212)">
<path d="M29.419 25.0004L49.0849 5.33667C50.3056 4.11592 50.3056 2.1367 49.0849 0.916051C47.8641 -0.304699 45.8849 -0.304699 44.6643 0.916051L25.0004 20.5818L5.33667 0.916051C4.11592 -0.304699 2.1367 -0.304699 0.916051 0.916051C-0.304602 2.1368 -0.304699 4.11602 0.916051 5.33667L20.5818 25.0004L0.916051 44.6643C-0.304699 45.885 -0.304699 47.8642 0.916051 49.0849C2.1368 50.3055 4.11602 50.3056 5.33667 49.0849L25.0004 29.419L44.6642 49.0849C45.8849 50.3056 47.8641 50.3056 49.0848 49.0849C50.3055 47.8641 50.3055 45.8849 49.0848 44.6643L29.419 25.0004Z" fill="#9E93CD"/>
</g>
<defs>
<clipPath id="clip0_118_212">
<rect width="50" height="50" fill="white"/>
</clipPath>
</defs>
</svg>
