<svg width="60" height="60" viewBox="0 0 60 60" fill="none" xmlns="http://www.w3.org/2000/svg">
<path d="M44.8029 3.76244C44.802 4.75667 44.4063 5.70986 43.7029 6.41244L24.5229 25.5924C23.9423 26.1728 23.4818 26.8619 23.1676 27.6203C22.8534 28.3787 22.6917 29.1915 22.6917 30.0124C22.6917 30.8333 22.8534 31.6462 23.1676 32.4046C23.4818 33.163 23.9423 33.8521 24.5229 34.4324L43.6779 53.5874C44.3609 54.2947 44.7389 55.242 44.7304 56.2252C44.7218 57.2084 44.3275 58.149 43.6322 58.8443C42.9369 59.5395 41.9963 59.9339 41.0131 59.9425C40.0299 59.951 39.0826 59.573 38.3754 58.8899L19.2204 39.7499C16.6448 37.1693 15.1982 33.6722 15.1982 30.0262C15.1982 26.3802 16.6448 22.8831 19.2204 20.3024L38.4004 1.10994C38.9248 0.585154 39.5931 0.227727 40.3208 0.0828921C41.0484 -0.0619432 41.8027 0.0123222 42.4881 0.296291C43.1736 0.58026 43.7594 1.06117 44.1714 1.67817C44.5834 2.29516 44.8032 3.02052 44.8029 3.76244Z" fill="#9E93CD"/>
</svg>
