<svg width="52" height="39" viewBox="0 0 52 39" fill="none" xmlns="http://www.w3.org/2000/svg">
<path d="M36.6046 2.43861C36.6038 3.08485 36.2609 3.70442 35.6513 4.16111L19.0286 16.6281C18.5255 17.0054 18.1263 17.4533 17.854 17.9462C17.5817 18.4392 17.4416 18.9675 17.4416 19.5011C17.4416 20.0347 17.5817 20.5631 17.854 21.056C18.1263 21.549 18.5255 21.9969 19.0286 22.3741L35.6296 34.8249C36.2216 35.2846 36.5492 35.9003 36.5418 36.5394C36.5344 37.1785 36.1926 37.7899 35.59 38.2418C34.9874 38.6937 34.1723 38.9501 33.3201 38.9556C32.468 38.9612 31.6471 38.7155 31.0341 38.2715L14.4331 25.8305C12.2009 24.1531 10.9473 21.88 10.9473 19.51C10.9473 17.1401 12.2009 14.867 14.4331 13.1896L31.0558 0.714481C31.5103 0.373368 32.0895 0.14104 32.7201 0.0468974C33.3508 -0.0472455 34.0045 0.00102698 34.5985 0.185607C35.1926 0.370186 35.7002 0.682777 36.0573 1.08383C36.4144 1.48487 36.6049 1.95635 36.6046 2.43861Z" fill="#9E93CD"/>
</svg>
